<svg width="19" height="16" viewBox="0 0 19 16" fill="none" xmlns="http://www.w3.org/2000/svg">
<path d="M17.5686 0.900649C17.8029 0.900649 18.0009 0.981521 18.1626 1.14326C18.3244 1.30501 18.4052 1.503 18.4052 1.73725V15.1229C18.4052 15.3571 18.3244 15.5551 18.1626 15.7169C18.0009 15.8786 17.8029 15.9595 17.5686 15.9595H2.5098C2.27556 15.9595 2.07756 15.8786 1.91582 15.7169C1.75407 15.5551 1.6732 15.3571 1.6732 15.1229V14.2863H16.732V4.49803L10.0392 10.5216L1.6732 2.99215V1.73725C1.6732 1.503 1.75407 1.30501 1.91582 1.14326C2.07756 0.981521 2.27556 0.900649 2.5098 0.900649H17.5686ZM6.69281 10.9399V12.6131H0V10.9399H6.69281ZM4.18301 6.75686V8.43006H0V6.75686H4.18301ZM16.3639 2.57385H3.71451L10.0392 8.26274L16.3639 2.57385Z" fill="#F53E32"/>
</svg>
