<svg width="19" height="18" viewBox="0 0 19 18" fill="none" xmlns="http://www.w3.org/2000/svg">
<g clip-path="url(#clip0_8342_24747)">
<path d="M5 8.00338H8.1875L7.83333 9.42004H5V15.795H3.58333V9.42004H0.75V8.00338H3.58333V6.67171C3.58333 6.07671 3.61167 5.61393 3.66833 5.28338C3.725 5.00949 3.81944 4.74504 3.95167 4.49004C4.20667 4.02727 4.56556 3.6731 5.02833 3.42754C5.27389 3.28588 5.53833 3.19143 5.82167 3.14421C6.15222 3.0781 6.615 3.04504 7.21 3.04504C7.57833 3.04504 7.89944 3.0781 8.17333 3.14421V4.46171H7.21C6.75667 4.46171 6.42847 4.47588 6.22542 4.50421C6.02236 4.53254 5.84528 4.58921 5.69417 4.67421C5.47694 4.78754 5.31167 4.9481 5.19833 5.15588C5.12278 5.30699 5.07083 5.48407 5.0425 5.68713C5.01417 5.89018 4.99528 6.21838 4.98583 6.67171V8.00338H5Z" fill="black"/>
</g>
<defs>
<clipPath id="clip0_8342_24747">
<rect width="17.48" height="17" fill="white" transform="matrix(1 0 0 -1 0.75 17.92)"/>
</clipPath>
</defs>
</svg>
