<svg width="19" height="18" viewBox="0 0 19 18" fill="none" xmlns="http://www.w3.org/2000/svg">
<g clip-path="url(#clip0_8342_24753)">
<path d="M13.4858 9.12258C13.4575 8.54647 13.3489 7.9987 13.16 7.47925C12.9711 6.95981 12.7114 6.47814 12.3808 6.03425C12.1919 6.23258 11.9747 6.44036 11.7292 6.65758C11.0492 7.22425 10.2653 7.69647 9.3775 8.07425C9.50028 8.32925 9.60889 8.56536 9.70333 8.78258L9.77417 8.98092C10.7847 8.86758 11.885 8.8912 13.075 9.05175L13.4858 9.12258ZM6.84167 3.83842C6.97389 4.01786 7.11083 4.2162 7.2525 4.43342C7.71528 5.10397 8.13556 5.77453 8.51333 6.44508L8.75417 6.87008C9.58528 6.53953 10.3031 6.11925 10.9075 5.60925C11.1247 5.42981 11.3136 5.25036 11.4742 5.07092C10.9736 4.65536 10.4164 4.33425 9.8025 4.10758C9.16972 3.87147 8.51333 3.75342 7.83333 3.75342C7.50278 3.75342 7.17222 3.78175 6.84167 3.83842ZM2.35083 8.00342C2.79472 7.99397 3.27639 7.96564 3.79583 7.91842C4.99528 7.80508 6.14278 7.61147 7.23833 7.33758C6.84167 6.6387 6.4025 5.93036 5.92083 5.21258C5.71306 4.90092 5.51472 4.60814 5.32583 4.33425C4.58917 4.70258 3.95875 5.2055 3.43458 5.843C2.91042 6.4805 2.54917 7.20064 2.35083 8.00342ZM3.4275 12.9901C3.73917 12.5368 4.11222 12.0881 4.54667 11.6443C5.64222 10.5204 6.86056 9.7412 8.20167 9.30675L8.24417 9.29258C8.12139 9.03758 8.00806 8.8062 7.90417 8.59842C6.6575 8.95731 5.31167 9.20286 3.86667 9.33508C3.25278 9.39175 2.68611 9.42008 2.16667 9.42008C2.16667 10.0906 2.28 10.7329 2.50667 11.3468C2.72389 11.9418 3.03083 12.4895 3.4275 12.9901ZM9.95833 14.6759C9.88278 14.2604 9.78361 13.8259 9.66083 13.3726C9.42472 12.4281 9.14139 11.512 8.81083 10.6243C7.45083 11.1154 6.30806 11.8379 5.3825 12.7918C4.99528 13.1884 4.68361 13.5804 4.4475 13.9676C4.92917 14.3265 5.45806 14.6027 6.03417 14.7963C6.61028 14.9899 7.21 15.0868 7.83333 15.0868C8.57 15.0868 9.27833 14.9498 9.95833 14.6759ZM11.29 13.9109C11.8378 13.4859 12.2958 12.9783 12.6642 12.388C13.0325 11.7977 13.2781 11.1579 13.4008 10.4684C13.1269 10.3929 12.8342 10.3362 12.5225 10.2984C11.7386 10.1851 10.9878 10.1756 10.27 10.2701C10.5817 11.139 10.8461 12.022 11.0633 12.9193C11.1483 13.2687 11.2239 13.5993 11.29 13.9109ZM7.83333 16.5034C6.87 16.5034 5.94917 16.3193 5.07083 15.9509C4.23028 15.592 3.48181 15.0844 2.82542 14.428C2.16903 13.7716 1.66139 13.0231 1.3025 12.1826C0.934167 11.3043 0.75 10.3834 0.75 9.42008C0.75 8.45675 0.934167 7.53592 1.3025 6.65758C1.66139 5.81703 2.16903 5.06856 2.82542 4.41217C3.48181 3.75578 4.23028 3.24814 5.07083 2.88925C5.94917 2.52092 6.87 2.33675 7.83333 2.33675C8.79667 2.33675 9.7175 2.52092 10.5958 2.88925C11.4364 3.24814 12.1849 3.75578 12.8413 4.41217C13.4976 5.06856 14.0053 5.81703 14.3642 6.65758C14.7325 7.53592 14.9167 8.45675 14.9167 9.42008C14.9167 10.3834 14.7325 11.3043 14.3642 12.1826C14.0053 13.0231 13.4976 13.7716 12.8413 14.428C12.1849 15.0844 11.4364 15.592 10.5958 15.9509C9.7175 16.3193 8.79667 16.5034 7.83333 16.5034Z" fill="black"/>
</g>
<defs>
<clipPath id="clip0_8342_24753">
<rect width="17.48" height="17" fill="white" transform="matrix(1 0 0 -1 0.75 17.92)"/>
</clipPath>
</defs>
</svg>
