<svg width="60" height="67" viewBox="0 0 60 67" fill="none" xmlns="http://www.w3.org/2000/svg">
<g clip-path="url(#clip0_8336_990)">
<g clip-path="url(#clip1_8336_990)">
<mask id="mask0_8336_990" style="mask-type:luminance" maskUnits="userSpaceOnUse" x="0" y="0" width="60" height="60">
<path d="M59.4671 0H0.162109V59.305H59.4671V0Z" fill="white"/>
</mask>
<g mask="url(#mask0_8336_990)">
<path d="M38.1426 28.2857L41.1426 23.5714L45.4283 21.4286C45.9997 21.2857 47.2283 21.0857 47.5711 21.4286C47.914 21.7714 52.8569 28.4286 55.2854 31.7143L57.4283 35.5714C56.9997 36.4286 56.0569 38.2286 55.714 38.5714C55.3711 38.9143 52.1425 40.4286 50.5711 41.1429C49.714 41.2857 47.914 41.5714 47.5711 41.5714C47.2283 41.5714 43.1425 36.1429 41.1426 33.4286L38.8926 29.5714L38.1426 28.2857Z" fill="#FDC040"/>
<path d="M47.5723 41.5714C47.2294 41.5714 43.1437 36.1429 41.1437 33.4286L38.8937 29.5714H37.2866H33.0008C32.5723 29.5714 30.4294 30.4286 29.5723 30.8571L27.0008 32.1428C26.1437 32.5714 25.2866 33.4286 24.858 33.8571C24.4294 34.2857 23.5723 35.5714 23.5723 36C23.5723 36.4286 23.5723 37.2857 24.0008 37.7143C24.4294 38.1428 25.2866 38.5714 25.7151 38.5714H28.2866C28.9723 38.5714 30.858 37.7143 31.7151 37.2857C32.0008 37.4286 32.658 37.8 33.0008 38.1428C33.3437 38.4857 36.2865 40.5714 37.7151 41.5714L41.1437 45C41.7152 45.2857 42.9437 45.7714 43.2866 45.4286C43.6294 45.0857 44.858 44.1428 45.4294 43.7143L46.7151 42.8571L47.5723 41.5714Z" fill="#FDC040"/>
<path d="M13.2852 46.2857C13.2852 46.9714 14.428 48.2857 14.9994 48.8571L17.9994 51.4286L19.7137 52.7143L21.428 54.4286C21.9995 54.7142 23.1423 55.3714 23.1423 55.7143C23.1423 56.0571 24.8566 56.4285 25.7137 56.5714C26.1423 56.2857 27.0852 55.6286 27.428 55.2857C27.8566 54.8571 27.8566 54.8571 27.8566 54C27.8566 53.1428 27.8566 52.2857 27.428 51.4286C26.9994 50.5714 26.9994 48.8571 26.5709 48.4286C26.1423 48 24.428 47.1428 24.428 46.7143C24.428 46.2857 23.1423 44.5714 22.7137 44.1428C22.2852 43.7143 21.428 42 20.9994 41.5714C20.5709 41.1428 19.2852 40.2857 18.428 40.7143C17.5709 41.1428 14.9994 43.2857 14.5709 43.7143C14.228 44.0571 13.5708 45.5714 13.2852 46.2857Z" fill="#FDC040"/>
<path d="M21.4294 4.28571C24.0008 7.85714 31.3723 14.8286 40.2866 14.1428L38.5723 19.2857L36.0008 21.4286L27.858 24L21.4294 21.8571L17.5723 15L18.0008 9.42856L20.1437 5.57142L21.4294 4.28571Z" fill="#FDC040"/>
<path d="M28.8569 15.407C28.4044 15.407 27.8496 15.3408 27.4697 14.9175C27.3376 14.7688 27.2219 14.6298 27.1097 14.514C26.2047 13.5617 24.6458 14.8845 25.5904 16.1211L25.8183 16.4153C25.9669 16.6007 26.2345 16.8155 26.6175 17.0603C26.9908 17.2982 27.4069 17.4702 27.8693 17.5727V19.2065C27.8693 19.7686 28.3282 20.2315 28.8899 20.2315C29.4547 20.2315 29.9335 19.7686 29.9335 19.2065V17.5629C30.6734 17.3911 31.3075 17.0305 31.826 16.485C32.3476 15.9392 32.6086 15.2152 32.6086 14.3123C32.6086 13.6973 32.4899 13.1849 32.252 12.7714C32.0142 12.3613 31.7235 12.0737 31.3767 11.9116C31.0267 11.7495 30.6469 11.6073 30.2274 11.4851C29.8113 11.3627 29.4315 11.2767 29.0814 11.2239C28.7347 11.1741 28.444 11.0682 28.2062 10.913C27.9683 10.7541 27.8495 10.5491 27.8495 10.2945C27.8495 9.07768 29.633 9.2264 30.4189 9.88777C31.5782 10.8633 32.876 9.07768 31.5319 8.06912L31.3766 7.93012C31.2709 7.84765 31.086 7.74502 30.8185 7.61599C30.5542 7.48719 30.2569 7.39116 29.9334 7.32166V6.33305V5.90321C29.9334 5.34097 29.4742 4.87811 28.9095 4.87811C28.348 4.87811 27.8858 5.34086 27.8858 5.90321V7.30522C27.1326 7.45406 26.5084 7.82784 26.0759 8.37989C25.64 8.94217 25.4186 9.56394 25.4186 10.2581C25.4186 10.9559 25.5806 11.528 25.9041 11.9811C26.2278 12.4338 26.6209 12.7514 27.0866 12.9366C27.5489 13.1219 28.0112 13.2707 28.4736 13.3797C28.9392 13.4923 29.3324 13.6145 29.6558 13.7567C29.9796 13.8956 30.1414 14.0908 30.1414 14.3453C30.1415 15.053 29.7122 15.407 28.8569 15.407Z" fill="#3BB77E"/>
<path d="M58.2429 33.4573L48.7254 21.2664C48.0843 20.4431 47.1123 19.9708 46.0589 19.9708C45.3153 19.9708 44.6114 20.2069 44.0207 20.6551L37.792 25.4031C37.079 25.9465 36.6235 26.7351 36.5094 27.6235C36.4923 27.7559 36.4843 27.8879 36.4829 28.0193C34.1083 27.8394 31.6557 28.0203 29.2739 29.5684L29.1671 29.6378L23.1418 28.7163C23.1541 28.5077 23.1475 28.2966 23.1199 28.0847C23.0051 27.1984 22.5504 26.4117 21.8388 25.8692L15.6085 21.1254C14.1488 20.0091 12.0383 20.2803 10.9033 21.7315L8.6344 24.6382C8.23732 25.1467 8.32789 25.8807 8.83642 26.2776C9.34497 26.6746 10.079 26.584 10.476 26.0756L12.7441 23.1699C13.0875 22.7308 13.7493 22.6444 14.1913 22.9826L20.423 27.7274C20.6341 27.8883 20.7691 28.1218 20.8032 28.3852C20.8373 28.649 20.7661 28.9101 20.6035 29.1189L11.0841 41.3117C10.7431 41.7497 10.0804 41.8353 9.63905 41.5006L3.41009 36.7521C3.19789 36.5904 3.06226 36.356 3.02831 36.0922C2.99461 35.8297 3.06585 35.5704 3.22974 35.361L4.84812 33.2877C5.24507 32.7792 5.15461 32.0452 4.646 31.6484C4.13751 31.2512 3.40349 31.3419 3.00642 31.8504L1.38898 33.9225C0.837969 34.6269 0.597274 35.5031 0.711251 36.3899C0.825344 37.2782 1.28102 38.0667 1.99384 38.61L8.2248 43.3602C8.8312 43.8201 9.54785 44.0427 10.2598 44.0426C10.6716 44.0426 11.0813 43.9669 11.4676 43.821L12.274 44.9254C11.8357 45.725 11.7673 46.6855 12.1196 47.6124C12.6231 48.9378 13.8112 49.8363 15.0966 49.8791C15.1364 50.0679 15.1916 50.2566 15.2671 50.4435C15.7852 51.7272 16.9682 52.601 18.2395 52.6585C18.2453 52.6918 18.2497 52.7253 18.2565 52.7587C18.4984 53.9341 19.4001 54.9379 20.5537 55.3161C20.8475 55.4124 21.1438 55.4619 21.4372 55.4706C21.5496 55.9438 21.7844 56.4009 22.1455 56.8022C22.7083 57.4278 23.53 57.8281 24.4314 57.8279C25.086 57.8279 25.7827 57.6155 26.4523 57.126L27.775 58.3624C28.4487 58.9911 29.2969 59.305 30.1369 59.305C30.9889 59.3049 31.8324 58.982 32.4765 58.3372C32.8606 57.9528 33.1582 57.4954 33.3507 57.0139C33.6789 57.1137 33.9996 57.1609 34.3072 57.1609C35.1735 57.1608 35.938 56.795 36.4857 56.2308C36.9339 55.7692 37.2547 55.1547 37.3966 54.4997C37.444 54.5021 37.4914 54.5041 37.539 54.5045C37.5507 54.5047 37.5621 54.5047 37.5738 54.5047C38.4952 54.5047 39.3792 54.1478 40.0035 53.5226C40.4409 53.0847 40.7418 52.5458 40.8854 51.9573C41.1083 52.0008 41.3321 52.0235 41.5554 52.0235C41.8365 52.0235 42.117 51.9886 42.3932 51.9178C43.5196 51.6292 44.3894 50.7489 44.6631 49.6203C44.9157 48.579 44.6555 47.482 43.947 46.4849C45.7814 45.009 46.5235 44.282 47.3615 42.9225C47.9339 43.3437 48.6307 43.5756 49.3672 43.5756C50.1129 43.5756 50.8182 43.3378 51.4045 42.8895L57.6373 38.1439C58.3483 37.6019 58.8031 36.8153 58.918 35.9289C59.0329 35.0416 58.7935 34.1642 58.2429 33.4573ZM15.7076 47.3034C15.5287 47.4651 15.3552 47.5471 15.1918 47.5471C14.8563 47.5471 14.4662 47.2115 14.3034 46.7829C14.1555 46.3935 14.2244 46.0683 14.5089 45.8157L14.5127 45.8124L14.5162 45.8093L18.4514 42.3115C18.7807 42.0195 19.1119 41.8651 19.4097 41.8651C19.8455 41.8651 20.1713 42.1959 20.2896 42.5037C20.4161 42.8322 20.34 43.1254 20.0647 43.3743L19.3788 43.9929L19.377 43.9946C19.3735 43.9975 19.3704 44.0005 19.3669 44.0035C19.3424 44.0258 19.3171 44.0487 19.292 44.0713L15.7076 47.3034ZM18.8885 50.0953C18.7111 50.252 18.5421 50.3279 18.3721 50.3279C18.0175 50.3279 17.6053 49.9947 17.4336 49.569C17.2442 49.1001 17.4689 48.8836 17.5399 48.8151C17.5855 48.7713 17.6403 48.7188 17.6974 48.6577L17.6984 48.6567L17.7105 48.6461C17.9352 48.4454 19.9139 46.6575 20.8593 45.8033L20.9298 45.7398C21.2502 45.4586 21.5747 45.3099 21.8688 45.3099C22.3326 45.3099 22.6778 45.6649 22.8024 45.9945C22.9262 46.3223 22.8519 46.6092 22.5825 46.8465L22.3402 47.0595C22.3384 47.0612 22.3366 47.0625 22.3349 47.0641L22.3332 47.0658L18.8885 50.0953ZM22.3701 52.6165C22.354 52.631 22.3388 52.6461 22.3232 52.6609L22.0491 52.9082C21.8055 53.1283 21.5616 53.1883 21.2813 53.0963C20.9269 52.9801 20.6175 52.6401 20.545 52.288C20.4819 51.9819 20.6045 51.6981 20.9156 51.4239L21.3054 51.0833C21.3152 51.0747 21.3237 51.0653 21.3332 51.0565L23.8863 48.8112C24.4981 48.2703 25.1041 48.2162 25.5073 48.667C25.5641 48.7305 26.045 49.3023 25.4579 49.8327L23.8899 51.2475C23.8731 51.2624 23.8561 51.2757 23.8394 51.2908C23.8335 51.2963 23.8286 51.3026 23.8228 51.3079L22.388 52.6025C22.3823 52.6075 22.3758 52.6113 22.3701 52.6165ZM23.8824 55.2396C23.7593 55.103 23.5218 54.7486 23.9113 54.3745L25.4755 52.9631C25.5939 52.8619 25.708 52.7816 25.8148 52.7265C25.8196 52.7239 25.8247 52.7213 25.8295 52.7188C26.46 52.3821 26.8016 52.7746 26.8915 52.9029C27.007 53.0678 27.1478 53.3918 26.7937 53.7099L25.7221 54.6731C25.718 54.6767 25.7141 54.6804 25.7101 54.684L25.2455 55.1015C24.482 55.7868 24.0091 55.3807 23.8824 55.2396ZM42.3927 49.0697C42.3209 49.3656 42.1098 49.5789 41.8134 49.6549C41.322 49.7806 40.7 49.5078 40.1305 48.9235C40.0879 48.8763 40.0441 48.8297 39.9983 48.7846L35.5891 44.4261C35.1301 43.9728 34.3906 43.977 33.9372 44.4358C33.4837 44.8946 33.4879 45.6342 33.9466 46.0876L38.3487 50.439C38.3561 50.4468 38.3635 50.4544 38.3707 50.4622C38.5466 50.6431 38.6444 50.8847 38.6455 51.1463C38.6466 51.4226 38.5418 51.6801 38.3505 51.8717C38.1618 52.0608 37.8795 52.1686 37.5745 52.1686C37.5702 52.1686 37.566 52.1686 37.5617 52.1685C37.2916 52.166 37.0451 52.0755 36.8716 51.9176C36.7985 51.8231 36.7189 51.7315 36.6314 51.6436L33.4081 48.4163C32.9521 47.9601 32.2125 47.9595 31.7561 48.4153C31.2997 48.8711 31.2992 49.6107 31.755 50.0671L34.8119 53.1278C34.8487 53.1817 34.8896 53.2336 34.9366 53.2822L35.0667 53.4164C35.2343 53.7355 35.1304 54.2731 34.8096 54.6037C34.3145 55.1135 33.6177 54.664 33.1213 54.1978L31.7409 52.8983C31.2712 52.4561 30.5318 52.4785 30.0897 52.9481C29.6475 53.4179 29.6698 54.1572 30.1395 54.5994L31.194 55.592C31.1966 55.5944 31.1987 55.597 31.2013 55.5993C31.2253 55.6219 31.2616 55.6559 31.2634 55.7737C31.2679 56.0475 31.0872 56.4228 30.8239 56.6864C30.4395 57.071 29.8005 57.0573 29.3697 56.6552L28.2138 55.5747L28.355 55.4476C29.5013 54.4184 29.6863 52.821 28.8049 51.5628C28.5181 51.1533 28.1589 50.8353 27.756 50.6145C28.324 49.4943 28.1652 48.1342 27.2484 47.1095C26.7313 46.5313 26.0007 46.1364 25.1852 46.049C25.1619 45.7559 25.0978 45.4605 24.9878 45.1694C24.5911 44.1188 23.709 43.3455 22.6709 43.0777C22.7141 42.6123 22.6498 42.1318 22.4701 41.6644C21.9784 40.3872 20.7487 39.5289 19.4098 39.5289C18.5318 39.5289 17.6645 39.8867 16.9005 40.5644L13.9182 43.2153L13.2626 42.3175L22.1545 30.9286L26.2198 31.5504L25.6048 31.9494C22.3105 34.0867 22.0694 36.5723 22.9423 38.186C23.6409 39.4776 25.0351 40.2159 26.5151 40.2159C27.1243 40.2158 27.7484 40.0906 28.3441 39.8274C28.3599 39.8203 28.3755 39.8131 28.3909 39.8055L31.4706 38.2785L33.2484 39.8973C33.2502 39.8988 33.252 39.9 33.2536 39.9015C33.2553 39.9031 33.2568 39.9047 33.2585 39.9063L41.4757 47.2143C42.1798 47.8404 42.5227 48.534 42.3927 49.0697ZM42.2945 44.8163L34.8161 38.1653L32.4531 36.0139C32.0973 35.6897 31.5789 35.617 31.1479 35.831L27.3782 37.7001C26.3541 38.1406 25.3467 37.7215 24.9969 37.0748C24.5162 36.1862 25.2362 34.9731 26.8761 33.9093L30.5462 31.5278C32.5362 30.2342 34.6237 30.1344 37.4792 30.4658L45.7477 41.0604C44.8752 42.6273 44.4118 43.1247 42.2945 44.8163ZM56.6011 35.6285C56.5671 35.8916 56.432 36.1251 56.2214 36.2856L49.9873 41.0322C49.7634 41.2035 49.5266 41.2395 49.3675 41.2395C49.0398 41.2394 48.7389 41.0951 48.543 40.8445L39.027 28.6515C38.8638 28.4429 38.7926 28.1836 38.8264 27.9212C38.8603 27.6573 38.9958 27.4227 39.2082 27.261L45.435 22.5143C45.6609 22.3431 45.8988 22.3071 46.0587 22.3071C46.3867 22.3071 46.6868 22.4508 46.883 22.7027L56.4006 34.8937C56.5641 35.1039 56.6354 35.3647 56.6011 35.6285Z" fill="#3BB77E"/>
<path d="M22.9602 23.7293C24.7941 24.7189 26.8658 25.2419 28.9512 25.2419C35.9035 25.2419 41.5598 19.5794 41.5598 12.6192C41.5598 7.76155 38.7238 3.28193 34.3358 1.20706C32.6455 0.406101 30.8338 0 28.9512 0C22.0004 0 16.3457 5.66097 16.3457 12.6192C16.3457 17.2601 18.8795 21.5169 22.9602 23.7293ZM28.9512 2.33607C30.485 2.33607 31.9602 2.66653 33.3363 3.31842C36.9126 5.00943 39.2235 8.66031 39.2235 12.6192C39.2235 18.2913 34.6154 22.9059 28.9513 22.9059C27.2518 22.9059 25.5638 22.4796 24.0717 21.6746C20.7471 19.8719 18.6818 16.4021 18.6818 12.6192C18.6818 6.94911 23.2886 2.33607 28.9512 2.33607Z" fill="#3BB77E"/>
<path d="M6.01179 29.8743C6.22688 30.046 6.48415 30.1294 6.73966 30.1294C7.08276 30.1294 7.42272 29.9789 7.65333 29.6897L7.66654 29.6732C8.06894 29.169 7.98634 28.434 7.48214 28.0317C6.97793 27.6295 6.24287 27.7117 5.8406 28.2161L5.82739 28.2328C5.42499 28.7369 5.50758 29.4719 6.01179 29.8743Z" fill="#3BB77E"/>
</g>
</g>
</g>
<defs>
<clipPath id="clip0_8336_990">
<rect width="60" height="60" fill="white"/>
</clipPath>
<clipPath id="clip1_8336_990">
<rect width="60" height="60" fill="white"/>
</clipPath>
</defs>
</svg>
