<svg width="60" height="60" viewBox="0 0 60 60" fill="none" xmlns="http://www.w3.org/2000/svg">
<g clip-path="url(#clip0_8336_1011)">
<g clip-path="url(#clip1_8336_1011)">
<mask id="mask0_8336_1011" style="mask-type:luminance" maskUnits="userSpaceOnUse" x="0" y="0" width="60" height="60">
<path d="M59.6292 0H0.324219V59.305H59.6292V0Z" fill="white"/>
</mask>
<g mask="url(#mask0_8336_1011)">
<path d="M40.286 57.4286C48.807 57.4286 55.7146 50.5209 55.7146 42C55.7146 33.479 48.807 26.5714 40.286 26.5714C31.765 26.5714 24.8574 33.479 24.8574 42C24.8574 50.5209 31.765 57.4286 40.286 57.4286Z" fill="#FDC040"/>
<path d="M43.4066 25.6726V14.4494C43.4066 14.1281 43.2583 13.8313 43.0483 13.5964L30.4654 0.383235C30.2305 0.136191 29.8966 0 29.5632 0H9.61325C5.93018 0 2.98828 3.00344 2.98828 6.68693V44.4109C2.98828 48.0944 5.93018 51.0485 9.61325 51.0485H25.3607C28.3392 55.9926 33.7534 59.305 39.9209 59.305C49.2901 59.305 56.9412 51.691 56.9412 42.3097C56.9539 34.1147 51.07 27.2672 43.4066 25.6726ZM30.7993 4.33865L39.2413 13.2255H33.7657C32.1341 13.2255 30.7993 11.8785 30.7993 10.2469V4.33865ZM9.61325 48.5763C7.30205 48.5763 5.46053 46.7221 5.46053 44.4109V6.68693C5.46053 4.36309 7.30205 2.47225 9.61325 2.47225H28.327V10.2469C28.327 13.2503 30.7621 15.6977 33.7657 15.6977H40.9345V25.3509C40.5638 25.3388 40.267 25.3017 39.9458 25.3017C35.632 25.3017 31.6644 26.9581 28.6732 29.5539H12.9755C12.2954 29.5539 11.7393 30.11 11.7393 30.7895C11.7393 31.4696 12.2954 32.0257 12.9755 32.0257H26.3742C25.4964 33.2618 24.767 34.4979 24.1987 35.8575H12.9755C12.2954 35.8575 11.7393 36.4137 11.7393 37.0937C11.7393 37.7733 12.2954 38.3298 12.9755 38.3298H23.3952C23.0862 39.566 22.9255 40.9378 22.9255 42.3097C22.9255 44.5344 23.3581 46.7348 24.1368 48.5889H9.61325V48.5763ZM39.9336 56.8455C31.9241 56.8455 25.41 50.3313 25.41 42.3219C25.41 34.3125 31.9114 27.7983 39.9336 27.7983C47.9552 27.7983 54.4567 34.3125 54.4567 42.3219C54.4567 50.3313 47.9431 56.8455 39.9336 56.8455Z" fill="#3BB77E"/>
<path d="M12.9763 25.8333H25.4973C26.1773 25.8333 26.7335 25.2767 26.7335 24.5972C26.7335 23.9171 26.1773 23.361 25.4973 23.361H12.9763C12.2963 23.361 11.7402 23.9171 11.7402 24.5972C11.7402 25.2767 12.2963 25.8333 12.9763 25.8333Z" fill="#3BB77E"/>
<path d="M39.5246 34.6956C39.6237 34.72 39.7223 34.7327 39.8214 34.7327C39.9449 34.7327 40.0563 34.72 40.1675 34.6829C41.7991 34.8191 43.0724 36.1788 43.0724 37.8352C43.0724 38.5149 43.6284 39.0709 44.308 39.0709C44.9881 39.0709 45.5441 38.5149 45.5441 37.8352C45.5441 35.116 43.6162 32.8414 41.0575 32.3098V31.5189C41.0575 30.8388 40.501 30.2828 39.8214 30.2828C39.1413 30.2828 38.5852 30.8388 38.5852 31.5189V32.3595C36.1131 32.9528 34.2715 35.1902 34.2715 37.8352C34.2715 40.95 36.8053 43.4715 39.9078 43.4715C41.6507 43.4715 43.0724 44.8928 43.0724 46.6356C43.0724 48.3785 41.6629 49.8123 39.9078 49.8123C38.165 49.8123 36.7437 48.3907 36.7437 46.6479C36.7437 45.9682 36.1872 45.4117 35.5077 45.4117C34.8276 45.4117 34.2715 45.9682 34.2715 46.6479C34.2715 49.3056 36.1131 51.5303 38.5852 52.1235V53.3967C38.5852 54.0768 39.1413 54.6329 39.8214 54.6329C40.501 54.6329 41.0575 54.0768 41.0575 53.3967V52.1607C43.6162 51.629 45.5441 49.3549 45.5441 46.6356C45.5441 43.5209 43.0103 40.9993 39.9078 40.9993C38.165 40.9993 36.7437 39.5777 36.7437 37.8352C36.7437 36.2281 37.955 34.8812 39.5246 34.6956Z" fill="#3BB77E"/>
</g>
</g>
</g>
<defs>
<clipPath id="clip0_8336_1011">
<rect width="60" height="60" fill="white"/>
</clipPath>
<clipPath id="clip1_8336_1011">
<rect width="60" height="60" fill="white"/>
</clipPath>
</defs>
</svg>
