<svg width="60" height="67" viewBox="0 0 60 67" fill="none" xmlns="http://www.w3.org/2000/svg">
<g clip-path="url(#clip0_8336_1026)">
<g clip-path="url(#clip1_8336_1026)">
<g clip-path="url(#clip2_8336_1026)">
<mask id="mask0_8336_1026" style="mask-type:luminance" maskUnits="userSpaceOnUse" x="0" y="0" width="60" height="60">
<path d="M59.7914 0H0.486328V59.305H59.7914V0Z" fill="white"/>
</mask>
<g mask="url(#mask0_8336_1026)">
<path d="M44.0158 55.9461C43.4152 55.9461 42.9214 56.4031 42.8631 56.9883H34.1466L32.7715 48.7077L34.2999 47.1794C34.5171 46.9622 34.6392 46.6675 34.6392 46.3604C34.6392 46.0532 34.5171 45.7586 34.2999 45.5413L32.9475 44.1889H35.2585C37.7947 44.1889 40.1547 45.4477 41.5712 47.5562C41.928 48.0872 42.6477 48.2284 43.1786 47.8718C43.7096 47.515 43.8508 46.7954 43.4941 46.2643C41.661 43.5358 38.6159 41.8991 35.3364 41.8734C36.4585 40.6308 37.1429 38.9858 37.1429 37.1837V35.4848C37.1429 31.6221 34.0004 28.4797 30.1377 28.4797C26.275 28.4797 23.1326 31.6221 23.1326 35.4848V37.1837C23.1326 38.9863 23.8172 40.6315 24.9396 41.8742C19.5079 41.9162 15.1016 46.3463 15.1016 51.7878V58.1466C15.1016 58.7863 15.6201 59.3049 16.2599 59.3049H44.0156C44.6553 59.3049 45.1739 58.7863 45.1739 58.1466V57.1044C45.1741 56.4648 44.6555 55.9461 44.0158 55.9461ZM30.1513 48.0519L28.4596 46.3604L30.1513 44.6688L31.843 46.3604L30.1513 48.0519ZM29.5517 50.6798C29.7356 50.7912 29.9432 50.8483 30.1512 50.8483C30.3592 50.8483 30.5669 50.7913 30.7506 50.6798L31.7983 56.9883H28.504L29.5517 50.6798ZM25.4494 35.4848C25.4494 32.8996 27.5526 30.7963 30.138 30.7963C32.7233 30.7963 34.8266 32.8994 34.8266 35.4848V37.1837C34.8266 39.7689 32.7233 41.8723 30.138 41.8723C27.5526 41.8723 25.4494 39.769 25.4494 37.1837V35.4848ZM17.4184 51.7878C17.4184 47.5976 20.8273 44.1889 25.0173 44.1889H27.3548L26.0024 45.5413C25.7852 45.7586 25.6631 46.0532 25.6631 46.3604C25.6631 46.6675 25.7852 46.9622 26.0024 47.1794L27.5308 48.7077L26.1557 56.9883H17.4183L17.4184 51.7878Z" fill="#3BB77E"/>
<path d="M24 1.28571C24.3429 1.28571 32.1429 1.57142 36 1.71428V14.1428L24 13.7143V1.28571Z" fill="#FDC040"/>
<path d="M51.4277 1.71429L45.4277 12.8572H58.2849L52.2849 2.14287L51.4277 1.71429Z" fill="#FDC040"/>
<path d="M24 1.28571C24.3429 1.28571 32.1429 1.57142 36 1.71428V14.1428L24 13.7143V1.28571Z" stroke="black" stroke-width="0.857143" stroke-linecap="round" stroke-linejoin="round"/>
<path d="M51.4277 1.71429L45.4277 12.8572H58.2849L52.2849 2.14287L51.4277 1.71429Z" stroke="black" stroke-width="0.857143" stroke-linecap="round" stroke-linejoin="round"/>
<path d="M15.2993 7.40745C15.2993 3.32351 11.9766 0.0010376 7.89285 0.0010376C3.80903 0.0010376 0.486328 3.32363 0.486328 7.40745C0.486328 11.4913 3.80892 14.8139 7.89274 14.8139C11.9766 14.8139 15.2993 11.4913 15.2993 7.40745ZM2.80293 7.40745C2.80293 4.601 5.08617 2.31764 7.89274 2.31764C10.6993 2.31764 12.9825 4.601 12.9825 7.40745C12.9825 10.2139 10.6993 12.4973 7.89274 12.4973C5.08617 12.4973 2.80293 10.214 2.80293 7.40745Z" fill="#3BB77E"/>
<path d="M23.8907 14.8131H36.3871C37.0267 14.8131 37.5453 14.2943 37.5453 13.6547V1.15842C37.5453 0.518809 37.0267 0.00012207 36.3871 0.00012207H23.8907C23.251 0.00012207 22.7324 0.518809 22.7324 1.15842V13.6547C22.7324 14.2943 23.251 14.8131 23.8907 14.8131ZM25.049 2.31673H35.2287V12.4965H25.049V2.31673Z" fill="#3BB77E"/>
<path d="M59.6359 12.6153L52.9523 1.03929C52.7455 0.680917 52.3631 0.460144 51.9493 0.460144C51.5354 0.460144 51.153 0.680917 50.9462 1.03929L44.2626 12.6153C44.0557 12.9738 44.0557 13.4153 44.2626 13.7737C44.4695 14.132 44.8519 14.3528 45.2657 14.3528H58.6328C59.0466 14.3528 59.429 14.132 59.6359 13.7737C59.8428 13.4153 59.8428 12.9738 59.6359 12.6153ZM47.2719 12.0362L51.9491 3.93505L56.6264 12.0362H47.2719Z" fill="#3BB77E"/>
<path d="M30.1394 26.2058C30.7792 26.2058 31.2977 25.687 31.2977 25.0474V21.7425L31.3446 21.808C31.5708 22.124 31.9264 22.2923 32.2876 22.2923C32.5209 22.2923 32.7565 22.222 32.9608 22.0758C33.481 21.7036 33.6009 20.98 33.2286 20.4598L31.0815 17.4595C30.8639 17.1556 30.5132 16.9752 30.1395 16.9752C29.7658 16.9752 29.4151 17.1556 29.1976 17.4595L27.0504 20.4598C26.6781 20.98 26.7981 21.7036 27.3183 22.0758C27.8385 22.4481 28.5619 22.3283 28.9343 21.808L28.9811 21.7425V25.0474C28.9811 25.6872 29.4997 26.2058 30.1394 26.2058Z" fill="#3BB77E"/>
<path d="M20.6019 35.5869C20.6019 34.9472 20.0833 34.4285 19.4436 34.4285H9.05744V21.7425L9.10441 21.808C9.33061 22.124 9.68615 22.2923 10.0474 22.2923C10.2806 22.2923 10.5162 22.222 10.7206 22.0758C11.2408 21.7036 11.3606 20.98 10.9883 20.4598L8.84118 17.4595C8.62364 17.1556 8.27294 16.9752 7.89928 16.9752C7.5256 16.9752 7.17487 17.1556 6.95734 17.4595L4.8102 20.4598C4.43792 20.98 4.55781 21.7036 5.078 22.0758C5.59808 22.4481 6.32167 22.3283 6.69406 21.808L6.74086 21.7425V35.5869C6.74086 36.2265 7.25943 36.7451 7.89916 36.7451H19.4436C20.0832 36.7451 20.6019 36.2266 20.6019 35.5869Z" fill="#3BB77E"/>
<path d="M53.3205 17.4594C53.1029 17.1554 52.7522 16.9751 52.3786 16.9751C52.0049 16.9751 51.6542 17.1554 51.4366 17.4594L49.2895 20.4597C48.9172 20.9799 49.0371 21.7034 49.5573 22.0757C50.0775 22.448 50.8011 22.3282 51.1733 21.8079L51.2202 21.7424V34.4285H40.8341C40.1944 34.4285 39.6758 34.9472 39.6758 35.5868C39.6758 36.2264 40.1944 36.7451 40.8341 36.7451H52.3786C53.0182 36.7451 53.5368 36.2264 53.5368 35.5868V21.7424L53.5838 21.8079C53.81 22.124 54.1656 22.2923 54.5267 22.2923C54.76 22.2923 54.9956 22.222 55.1999 22.0758C55.7201 21.7035 55.84 20.9801 55.4678 20.4599L53.3205 17.4594Z" fill="#3BB77E"/>
<path d="M44.0158 53.0505C44.6554 53.0505 45.174 52.532 45.174 51.8923C45.174 51.2526 44.6554 50.7339 44.0158 50.7339C43.376 50.7339 42.8574 51.2526 42.8574 51.8923C42.8574 52.532 43.376 53.0505 44.0158 53.0505Z" fill="#3BB77E"/>
</g>
</g>
</g>
</g>
<defs>
<clipPath id="clip0_8336_1026">
<rect width="60" height="60" fill="white"/>
</clipPath>
<clipPath id="clip1_8336_1026">
<rect width="60" height="60" fill="white"/>
</clipPath>
<clipPath id="clip2_8336_1026">
<rect width="60" height="60" fill="white"/>
</clipPath>
</defs>
</svg>
