<svg width="60" height="67" viewBox="0 0 60 67" fill="none" xmlns="http://www.w3.org/2000/svg">
<g clip-path="url(#clip0_8336_1050)">
<g clip-path="url(#clip1_8336_1050)">
<g clip-path="url(#clip2_8336_1050)">
<mask id="mask0_8336_1050" style="mask-type:luminance" maskUnits="userSpaceOnUse" x="0" y="0" width="60" height="60">
<path d="M59.8377 0H0.648438V59.1892H59.8377V0Z" fill="white"/>
</mask>
<g mask="url(#mask0_8336_1050)">
<path d="M12.4277 14.1429V30C15.4277 29 22.7992 28.8 28.2849 36C29.5706 38.7143 31.6277 45 29.5706 48.4286L35.5706 51.8572V26.1429L12.4277 14.1429Z" fill="#FDC040"/>
<path d="M59.2379 12.8016L36.1857 0.14344C35.8394 -0.046674 35.4194 -0.046674 35.0731 0.14344L26.3843 4.91436C26.201 4.96268 26.0298 5.0548 25.888 5.18711L12.0213 12.8016C11.6516 13.0044 11.4217 13.3927 11.4217 13.815V29.1244C9.08253 29.8559 6.93886 31.146 5.15648 32.9289C0.510651 37.5743 -0.673837 44.6595 2.20903 50.5594C2.48901 51.1329 3.18128 51.3709 3.75479 51.0905C4.32874 50.81 4.56627 50.1178 4.28629 49.5443C1.83694 44.5313 2.8435 38.5113 6.7912 34.5636C9.25996 32.0948 12.542 30.7351 16.0332 30.7351C19.5243 30.7351 22.8064 32.0948 25.2752 34.5636C27.7435 37.032 29.1032 40.314 29.1032 43.8052C29.1032 47.2963 27.7435 50.5784 25.2747 53.0471C21.3271 56.9948 15.307 58.0014 10.2941 55.5521C9.72059 55.2716 9.02827 55.5096 8.74833 56.0831C8.46791 56.6571 8.70547 57.3493 9.27942 57.6293C11.4284 58.6797 13.7342 59.19 16.0232 59.19C20.0166 59.1895 23.9566 57.6352 26.9099 54.6819C28.2642 53.3276 29.3344 51.7651 30.0917 50.0667L35.0731 52.8019C35.2465 52.8972 35.438 52.9446 35.6294 52.9446C35.8208 52.9446 36.0128 52.8972 36.1857 52.8019L59.2379 40.1442C59.6078 39.941 59.8376 39.5526 59.8376 39.1308V31.0968C59.8376 30.4583 59.3201 29.9408 58.6815 29.9408C58.043 29.9408 57.5255 30.4583 57.5255 31.0968V38.4468L36.7891 49.8333V27.155L43.6328 23.397V29.3542C43.6328 29.7634 43.8486 30.1417 44.2004 30.3495C44.3819 30.4566 44.5851 30.5102 44.7888 30.5102C44.9803 30.5102 45.1722 30.4628 45.346 30.3671L50.2858 27.6481C50.6552 27.4449 50.8842 27.057 50.8842 26.6357V19.415L57.5255 15.7685V21.8489C57.5255 22.4875 58.043 23.0051 58.6815 23.0051C59.3201 23.0051 59.8376 22.4875 59.8376 21.8489V13.815C59.8376 13.3932 59.6078 13.0044 59.2379 12.8016ZM35.6294 2.47539L56.2796 13.815L49.7656 17.3919L29.1154 6.05234L35.6294 2.47539ZM35.6294 25.1541L14.9792 13.815L21.7321 10.1066L42.3828 21.4458L35.6294 25.1541ZM44.7842 20.1271L24.134 8.78798L26.7134 7.3714L47.3641 18.7105L44.7842 20.1271ZM26.9099 32.9289C24.0044 30.0234 20.1416 28.4235 16.0332 28.4235C15.256 28.4235 14.4884 28.4808 13.7337 28.5933V15.7685L34.4774 27.1591V49.8373L30.877 47.8603C31.2315 46.5552 31.4149 45.1942 31.4149 43.8052C31.4149 39.6967 29.8149 35.8339 26.9099 32.9289ZM48.5726 25.9524L45.9448 27.3989V22.1276L48.5726 20.6848V25.9524Z" fill="#3BB77E"/>
<path d="M58.6814 25.3105C58.3776 25.3105 58.079 25.4343 57.8641 25.6492C57.6492 25.8641 57.5254 26.1622 57.5254 26.4665C57.5254 26.7705 57.6492 27.0685 57.8641 27.2835C58.079 27.4989 58.3776 27.6221 58.6814 27.6221C58.9854 27.6221 59.2838 27.4989 59.4988 27.2835C59.7138 27.0685 59.8375 26.7705 59.8375 26.4665C59.8375 26.1622 59.7138 25.8641 59.4988 25.6492C59.2838 25.4343 58.9854 25.3105 58.6814 25.3105Z" fill="#3BB77E"/>
<path d="M12.1451 44.9605C12.4409 44.9605 12.7371 44.8476 12.9624 44.6223C13.414 44.1706 13.414 43.4386 12.9624 42.9871L12.1618 42.186H18.9941C20.6514 42.186 21.9998 43.5344 21.9998 45.1917C21.9998 46.849 20.6514 48.1974 18.9941 48.1974H14.9457C14.3072 48.1974 13.7897 48.7149 13.7897 49.3534C13.7897 49.9915 14.3072 50.509 14.9457 50.509H18.9941C21.9263 50.509 24.3119 48.1238 24.3119 45.1917C24.3119 42.2596 21.9263 39.8744 18.9941 39.8744H12.1618L12.9624 39.0732C13.414 38.6217 13.414 37.8897 12.9624 37.4381C12.5112 36.9869 11.7792 36.9869 11.3277 37.4381L8.55319 40.2126C8.10206 40.6642 8.10206 41.3962 8.55319 41.8478L11.3277 44.6218C11.5535 44.8476 11.8493 44.9605 12.1451 44.9605Z" fill="#3BB77E"/>
<path d="M5.97512 55.0216C5.64637 55.0216 5.31988 54.8816 5.09183 54.6102L5.08958 54.6075C4.67864 54.1189 4.74186 53.39 5.23047 52.9791C5.71907 52.5677 6.44837 52.631 6.85931 53.1195C7.26979 53.6086 7.20793 54.3388 6.71931 54.7497C6.50211 54.9322 6.23794 55.0216 5.97512 55.0216Z" fill="#3BB77E"/>
</g>
</g>
</g>
</g>
<defs>
<clipPath id="clip0_8336_1050">
<rect width="60" height="60" fill="white"/>
</clipPath>
<clipPath id="clip1_8336_1050">
<rect width="60" height="60" fill="white"/>
</clipPath>
<clipPath id="clip2_8336_1050">
<rect width="60" height="60" fill="white"/>
</clipPath>
</defs>
</svg>
