<svg width="19" height="18" viewBox="0 0 19 18" fill="none" xmlns="http://www.w3.org/2000/svg">
<g clip-path="url(#clip0_8342_24756)">
<path d="M7.83333 7.29508C7.44611 7.29508 7.08958 7.38953 6.76375 7.57842C6.43792 7.76731 6.18056 8.02467 5.99167 8.3505C5.80278 8.67633 5.70833 9.03286 5.70833 9.42008C5.70833 9.80731 5.80278 10.1638 5.99167 10.4897C6.18056 10.8155 6.43792 11.0729 6.76375 11.2618C7.08958 11.4506 7.44611 11.5451 7.83333 11.5451C8.22056 11.5451 8.57708 11.4506 8.90292 11.2618C9.22875 11.0729 9.48611 10.8155 9.675 10.4897C9.86389 10.1638 9.95833 9.80731 9.95833 9.42008C9.95833 9.03286 9.86389 8.67633 9.675 8.3505C9.48611 8.02467 9.22875 7.76731 8.90292 7.57842C8.57708 7.38953 8.22056 7.29508 7.83333 7.29508ZM7.83333 5.87842C8.47556 5.87842 9.06819 6.03661 9.61125 6.353C10.1543 6.66939 10.584 7.09911 10.9004 7.64217C11.2168 8.18522 11.375 8.77786 11.375 9.42008C11.375 10.0623 11.2168 10.6549 10.9004 11.198C10.584 11.7411 10.1543 12.1708 9.61125 12.4872C9.06819 12.8036 8.47556 12.9618 7.83333 12.9618C7.19111 12.9618 6.59847 12.8036 6.05542 12.4872C5.51236 12.1708 5.08264 11.7411 4.76625 11.198C4.44986 10.6549 4.29167 10.0623 4.29167 9.42008C4.29167 8.77786 4.44986 8.18522 4.76625 7.64217C5.08264 7.09911 5.51236 6.66939 6.05542 6.353C6.59847 6.03661 7.19111 5.87842 7.83333 5.87842ZM12.4375 5.69425C12.4375 5.93981 12.3501 6.14995 12.1754 6.32467C12.0007 6.49939 11.7929 6.58675 11.5521 6.58675C11.3113 6.58675 11.1035 6.49939 10.9288 6.32467C10.754 6.14995 10.6667 5.94217 10.6667 5.70133C10.6667 5.4605 10.754 5.25272 10.9288 5.078C11.1035 4.90328 11.3113 4.81592 11.5521 4.81592C11.7929 4.81592 12.0007 4.90328 12.1754 5.078C12.3501 5.25272 12.4375 5.45814 12.4375 5.69425ZM7.83333 3.75342C6.96444 3.75342 6.37417 3.75578 6.0625 3.7605C5.75083 3.76522 5.39194 3.77703 4.98583 3.79592C4.47583 3.81481 4.05083 3.89036 3.71083 4.02258C3.41806 4.13592 3.16069 4.30356 2.93875 4.5255C2.71681 4.74745 2.54917 5.00481 2.43583 5.29758C2.30361 5.63758 2.22806 6.06258 2.20917 6.57258C2.19028 6.95981 2.17847 7.30689 2.17375 7.61383C2.16903 7.92078 2.16667 8.52286 2.16667 9.42008C2.16667 10.289 2.16903 10.8793 2.17375 11.1909C2.17847 11.5026 2.19028 11.8615 2.20917 12.2676C2.22806 12.7776 2.30361 13.2026 2.43583 13.5426C2.54917 13.8354 2.71681 14.0927 2.93875 14.3147C3.16069 14.5366 3.41806 14.6995 3.71083 14.8034C4.05083 14.9451 4.47583 15.0254 4.98583 15.0443C5.37306 15.0631 5.72014 15.0749 6.02708 15.0797C6.33403 15.0844 6.93611 15.0868 7.83333 15.0868C8.70222 15.0868 9.2925 15.0844 9.60417 15.0797C9.91583 15.0749 10.2747 15.0631 10.6808 15.0443C11.1908 15.0254 11.6158 14.9498 11.9558 14.8176C12.2486 14.7043 12.506 14.5366 12.7279 14.3147C12.9499 14.0927 13.1128 13.8354 13.2167 13.5426C13.3583 13.2026 13.4386 12.7776 13.4575 12.2676C13.4764 11.8804 13.4882 11.5333 13.4929 11.2263C13.4976 10.9194 13.5 10.3173 13.5 9.42008C13.5 8.5512 13.4976 7.96092 13.4929 7.64925C13.4882 7.33758 13.4764 6.9787 13.4575 6.57258C13.4386 6.06258 13.3631 5.63758 13.2308 5.29758C13.1175 5.00481 12.9499 4.74745 12.7279 4.5255C12.506 4.30356 12.2486 4.13592 11.9558 4.02258C11.6158 3.89036 11.1908 3.81481 10.6808 3.79592C10.2936 3.77703 9.94653 3.76522 9.63958 3.7605C9.33264 3.75578 8.73056 3.75342 7.83333 3.75342ZM7.83333 2.33675C8.75889 2.33675 9.39167 2.34147 9.73167 2.35092C10.015 2.35092 10.355 2.36036 10.7517 2.37925C11.4128 2.40758 11.9842 2.5162 12.4658 2.70508C12.9475 2.89397 13.3678 3.16786 13.7267 3.52675C14.0856 3.88564 14.3594 4.30592 14.5483 4.78758C14.7372 5.26925 14.8458 5.84064 14.8742 6.50175C14.8931 6.90786 14.9025 7.24786 14.9025 7.52175C14.9119 7.88064 14.9167 8.51814 14.9167 9.43425C14.9167 10.3504 14.9119 10.9784 14.9025 11.3184C14.9025 11.6018 14.8931 11.9418 14.8742 12.3384C14.8458 12.9995 14.7372 13.5709 14.5483 14.0526C14.3594 14.5343 14.0856 14.9545 13.7267 15.3134C13.3678 15.6723 12.9475 15.9462 12.4658 16.1351C11.9842 16.324 11.4128 16.4326 10.7517 16.4609C10.3456 16.4798 10.0056 16.4893 9.73167 16.4893C9.37278 16.4987 8.73528 16.5034 7.81917 16.5034C6.90306 16.5034 6.275 16.4987 5.935 16.4893C5.65167 16.4893 5.31167 16.4798 4.915 16.4609C4.25389 16.4326 3.6825 16.324 3.20083 16.1351C2.71917 15.9462 2.29889 15.6723 1.94 15.3134C1.58111 14.9545 1.30722 14.5343 1.11833 14.0526C0.929444 13.5709 0.820833 12.9995 0.7925 12.3384C0.773611 11.9323 0.764167 11.5923 0.764167 11.3184C0.754722 10.9595 0.75 10.322 0.75 9.40592C0.75 8.48981 0.754722 7.86175 0.764167 7.52175C0.764167 7.23842 0.773611 6.89842 0.7925 6.50175C0.820833 5.84064 0.929444 5.26925 1.11833 4.78758C1.30722 4.30592 1.58111 3.88564 1.94 3.52675C2.29889 3.16786 2.71917 2.89397 3.20083 2.70508C3.6825 2.5162 4.25389 2.40758 4.915 2.37925C5.32111 2.36036 5.66111 2.35092 5.935 2.35092C6.29389 2.34147 6.92667 2.33675 7.83333 2.33675Z" fill="black"/>
</g>
<defs>
<clipPath id="clip0_8342_24756">
<rect width="17.48" height="17" fill="white" transform="matrix(1 0 0 -1 0.75 17.92)"/>
</clipPath>
</defs>
</svg>
