<svg width="16" height="19" viewBox="0 0 16 19" fill="none" xmlns="http://www.w3.org/2000/svg">
<path d="M7.52941 16.1563L11.6622 12.0067C12.4207 11.2594 12.9339 10.3782 13.2016 9.36308C13.4581 8.37032 13.4581 7.37755 13.2016 6.38478C12.9339 5.36971 12.4235 4.4857 11.6706 3.73276C10.9176 2.97982 10.0336 2.46949 9.01856 2.20178C8.02579 1.94522 7.03303 1.94522 6.04026 2.20178C5.02519 2.46949 4.14118 2.97982 3.38824 3.73276C2.63529 4.4857 2.12497 5.36971 1.85725 6.38478C1.6007 7.37755 1.6007 8.37032 1.85725 9.36308C2.12497 10.3782 2.63808 11.2594 3.3966 12.0067L7.52941 16.1563ZM7.52941 18.5155L2.20863 13.1947C1.23817 12.2354 0.585621 11.0976 0.25098 9.78139C-0.0836601 8.50975 -0.0836601 7.23812 0.25098 5.96648C0.585621 4.65023 1.23538 3.50966 2.20026 2.54478C3.16514 1.5799 4.30571 0.924566 5.62196 0.578772C6.89359 0.255285 8.16523 0.255285 9.43686 0.578772C10.7531 0.924566 11.8937 1.5799 12.8586 2.54478C13.8234 3.50966 14.4732 4.65023 14.8078 5.96648C15.1425 7.23812 15.1425 8.50975 14.8078 9.78139C14.4732 11.0976 13.8207 12.2354 12.8502 13.1947L7.52941 18.5155ZM7.52941 9.54714C7.83059 9.54714 8.10946 9.47184 8.36601 9.32125C8.62257 9.17067 8.82614 8.96709 8.97673 8.71054C9.12732 8.45398 9.20261 8.17511 9.20261 7.87393C9.20261 7.57276 9.12732 7.29389 8.97673 7.03733C8.82614 6.78078 8.62257 6.5772 8.36601 6.42661C8.10946 6.27603 7.83059 6.20073 7.52941 6.20073C7.22824 6.20073 6.94937 6.27603 6.69281 6.42661C6.43625 6.5772 6.23268 6.78078 6.08209 7.03733C5.9315 7.29389 5.85621 7.57276 5.85621 7.87393C5.85621 8.17511 5.9315 8.45398 6.08209 8.71054C6.23268 8.96709 6.43625 9.17067 6.69281 9.32125C6.94937 9.47184 7.22824 9.54714 7.52941 9.54714ZM7.52941 11.2203C6.92706 11.2203 6.36932 11.0698 5.85621 10.7686C5.34309 10.4674 4.93595 10.0603 4.63477 9.54714C4.33359 9.03402 4.18301 8.4735 4.18301 7.86557C4.18301 7.25764 4.33359 6.6999 4.63477 6.19237C4.93595 5.68483 5.34309 5.28047 5.85621 4.97929C6.36932 4.67812 6.92706 4.52753 7.52941 4.52753C8.13176 4.52753 8.6895 4.67812 9.20261 4.97929C9.71573 5.28047 10.1229 5.68483 10.4241 6.19237C10.7252 6.6999 10.8758 7.25764 10.8758 7.86557C10.8758 8.4735 10.7252 9.03402 10.4241 9.54714C10.1229 10.0603 9.71573 10.4674 9.20261 10.7686C8.6895 11.0698 8.13176 11.2203 7.52941 11.2203Z" fill="#F53E32"/>
</svg>
