<svg width="16" height="16" viewBox="0 0 16 16" fill="none" xmlns="http://www.w3.org/2000/svg">
<path d="M5.32078 7.32575C5.7112 8.01734 6.18806 8.64479 6.75137 9.2081C7.31468 9.77141 7.94213 10.2483 8.63373 10.6387L9.36993 9.6013C9.49264 9.42283 9.65717 9.31128 9.86353 9.26666C10.0699 9.22204 10.2679 9.24993 10.4575 9.35032C11.6511 10.0084 12.9283 10.3877 14.2892 10.4881C14.5011 10.5104 14.6824 10.5996 14.8329 10.7558C14.9835 10.912 15.0588 11.1016 15.0588 11.3247V15.0559C15.0588 15.2679 14.9863 15.4547 14.8413 15.6165C14.6963 15.7782 14.5178 15.8702 14.3059 15.8925C13.8597 15.9372 13.4135 15.9595 12.9673 15.9595C11.2049 15.9595 9.52052 15.6193 7.91425 14.9388C6.36375 14.2807 4.99172 13.3549 3.79817 12.1613C2.60462 10.9678 1.67878 9.59573 1.02065 8.04522C0.340218 6.43895 0 4.75459 0 2.99215C0 2.54597 0.0223094 2.09978 0.0669281 1.65359C0.0892375 1.44165 0.181264 1.26318 0.343007 1.11817C0.504749 0.973155 0.69159 0.900649 0.903529 0.900649H4.63477C4.85786 0.900649 5.04749 0.975944 5.20366 1.12653C5.35983 1.27712 5.44906 1.45838 5.47137 1.67032C5.57176 3.03119 5.95102 4.3084 6.60915 5.50196C6.70954 5.69159 6.73743 5.88958 6.69281 6.09594C6.64819 6.30231 6.53664 6.46684 6.35817 6.58954L5.32078 7.32575ZM3.21255 6.77359L4.80209 5.63581C4.3559 4.66535 4.04915 3.6447 3.88183 2.57385H1.6732V2.99215C1.6732 4.52034 1.9688 5.98719 2.56 7.39268C3.12889 8.74239 3.93481 9.93873 4.97778 10.9817C6.02074 12.0247 7.21708 12.8306 8.5668 13.3995C9.97229 13.9907 11.4391 14.2863 12.9673 14.2863H13.3856V12.0776C12.3148 11.9103 11.2941 11.6036 10.3237 11.1574L9.18588 12.7469C8.72854 12.5684 8.28235 12.3565 7.84732 12.1111L7.79712 12.0944C6.98283 11.6259 6.24105 11.057 5.57176 10.3877C4.90248 9.71843 4.33359 8.97664 3.8651 8.16235L3.84837 8.11215C3.60296 7.67712 3.39102 7.23093 3.21255 6.77359Z" fill="#F53E32"/>
</svg>
