<svg width="22" height="22" viewBox="0 0 22 22" fill="none" xmlns="http://www.w3.org/2000/svg">
<g clip-path="url(#clip0_8342_24744)">
<path d="M0.5825 8.01005C0.360833 7.92838 0.25 7.83505 0.25 7.73005C0.25 7.62505 0.366667 7.53172 0.6 7.45005L17.295 1.88505C17.5283 1.80338 17.7033 1.81797 17.82 1.9288C17.9367 2.03963 17.96 2.21172 17.89 2.44505L13.13 19.14C13.06 19.3734 12.9667 19.493 12.85 19.4988C12.7333 19.5046 12.6283 19.3967 12.535 19.175L9.385 12.105L14.635 5.10505L7.635 10.355L0.5825 8.01005Z" fill="black"/>
</g>
<defs>
<clipPath id="clip0_8342_24744">
<rect width="21.48" height="21" fill="white" transform="matrix(1 0 0 -1 0.25 21.17)"/>
</clipPath>
</defs>
</svg>
